<svg version="1.1" xmlns="http://www.w3.org/2000/svg" viewBox="-2808.0196462357944 -1195.0080444335938 10340.05178238997 2565.6320892333983"><desc>Created with Snap</desc><defs></defs><g><rect x="-2808.0196462357944" y="-1195.0080444335938" width="10340.05178238997" height="2565.6320892333983" fill="#d90429" style=""></rect><g transform="matrix(47.5215,0,0,47.5215,-2504.9033,-1028.9469)"><path d="M23.595,7.578c-8.742,0-15.854,7.112-15.854,15.854c0,8.742,7.112,15.854,15.854,15.854c8.742,0,15.854-7.112,15.854-15.854  C39.449,14.69,32.337,7.578,23.595,7.578z M34.902,17.323h-5.136c-0.362-2.238-0.928-4.289-1.696-5.925  C30.996,12.49,33.428,14.606,34.902,17.323z M36.449,23.432c0,0.921-0.102,1.818-0.287,2.685h-6.01  c0.06-0.889,0.093-1.786,0.093-2.685c0-1.041-0.043-2.083-0.122-3.108h5.93C36.303,21.321,36.449,22.358,36.449,23.432z   M23.595,36.286c-0.943,0-2.461-2.63-3.207-7.17h6.413C26.057,33.656,24.538,36.286,23.595,36.286z M20.041,26.116  c-0.06-0.852-0.095-1.744-0.095-2.685c0-1.099,0.048-2.132,0.129-3.108h7.042c0.081,0.977,0.129,2.01,0.129,3.108  c0,0.94-0.035,1.833-0.096,2.685H20.041z M10.741,23.432c0-1.073,0.147-2.111,0.396-3.108h5.931  c-0.08,1.026-0.122,2.067-0.122,3.108c0,0.898,0.034,1.796,0.093,2.685h-6.011C10.842,25.25,10.741,24.353,10.741,23.432z   M23.595,10.578c0.914,0,2.365,2.468,3.133,6.745h-6.266C21.23,13.046,22.682,10.578,23.595,10.578z M19.121,11.397  c-0.769,1.637-1.334,3.688-1.697,5.926h-5.136C13.762,14.606,16.194,12.49,19.121,11.397z M12.083,29.116h5.271  c0.357,2.404,0.949,4.61,1.766,6.351C16.045,34.319,13.53,32.033,12.083,29.116z M28.07,35.467c0.816-1.74,1.407-3.946,1.765-6.351  h5.271C33.66,32.033,31.145,34.319,28.07,35.467z" fill="#ffffff" style=""></path><path d="M3.5,24.555c0.006,0.007,0.013,0.012,0.02,0.018c0.08,0.078,0.17,0.145,0.266,0.203c0.029,0.019,0.06,0.033,0.09,0.049  c0.079,0.042,0.161,0.075,0.247,0.102c0.03,0.01,0.059,0.021,0.089,0.027C4.325,24.981,4.442,25,4.565,25c0,0,0,0,0.001,0h0  c0.002,0,0.004-0.001,0.006-0.001c0.116,0,0.228-0.017,0.336-0.042c0.032-0.008,0.062-0.02,0.094-0.029  c0.086-0.026,0.168-0.06,0.247-0.1c0.017-0.009,0.036-0.012,0.053-0.021c0.017-0.01,0.029-0.022,0.045-0.032  c0.046-0.028,0.089-0.06,0.132-0.093c0.037-0.028,0.074-0.058,0.107-0.089c0.035-0.032,0.067-0.068,0.099-0.104  c0.033-0.037,0.065-0.074,0.094-0.113c0.027-0.039,0.051-0.079,0.075-0.12c0.024-0.042,0.049-0.083,0.069-0.127  c0.021-0.044,0.036-0.09,0.052-0.136s0.032-0.092,0.043-0.139c0.011-0.045,0.018-0.09,0.024-0.137  c0.008-0.053,0.014-0.106,0.017-0.16c0-0.019,0.005-0.037,0.005-0.056c0-9.666,7.864-17.53,17.53-17.53  c8.031,0,15.017,5.428,16.991,13.2c0.204,0.803,1.019,1.292,1.823,1.084c0.803-0.204,1.289-1.02,1.085-1.823  C41.182,9.328,32.999,2.97,23.595,2.97c-9.696,0-17.825,6.765-19.963,15.817l-0.739-1.313c-0.407-0.722-1.321-0.978-2.043-0.571  c-0.722,0.407-0.977,1.321-0.571,2.043l2.979,5.289c0.008,0.014,0.02,0.022,0.027,0.036C3.347,24.374,3.416,24.471,3.5,24.555z" fill="#ffffff" style=""></path><path d="M46.721,28.053l-2.979-5.289c-0.009-0.017-0.022-0.029-0.031-0.045c-0.029-0.047-0.062-0.091-0.096-0.135  c-0.027-0.036-0.056-0.071-0.086-0.104c-0.034-0.037-0.071-0.07-0.109-0.103c-0.035-0.031-0.07-0.062-0.107-0.089  c-0.041-0.03-0.085-0.055-0.129-0.081c-0.039-0.022-0.077-0.045-0.118-0.064c-0.047-0.022-0.096-0.039-0.146-0.056  c-0.042-0.015-0.085-0.029-0.129-0.04c-0.047-0.011-0.096-0.019-0.145-0.025c-0.051-0.008-0.102-0.014-0.153-0.016  C42.473,22.005,42.454,22,42.435,22c-0.027,0-0.053,0.007-0.079,0.008c-0.054,0.003-0.106,0.008-0.16,0.016  c-0.047,0.008-0.093,0.018-0.139,0.03c-0.048,0.012-0.095,0.026-0.142,0.043c-0.049,0.019-0.096,0.04-0.143,0.063  c-0.024,0.012-0.05,0.019-0.074,0.033c-0.018,0.01-0.031,0.023-0.048,0.034c-0.045,0.027-0.086,0.058-0.127,0.089  c-0.039,0.03-0.076,0.059-0.111,0.092c-0.034,0.032-0.065,0.066-0.097,0.102c-0.033,0.038-0.066,0.075-0.096,0.116  c-0.026,0.038-0.05,0.078-0.073,0.118c-0.025,0.042-0.05,0.084-0.07,0.129c-0.021,0.043-0.036,0.088-0.052,0.134  c-0.017,0.046-0.032,0.093-0.044,0.141c-0.011,0.044-0.018,0.089-0.024,0.135c-0.008,0.054-0.014,0.107-0.016,0.162  c-0.001,0.019-0.006,0.037-0.006,0.056c0,9.666-7.864,17.53-17.53,17.53c-8.03,0-15.017-5.428-16.991-13.199  c-0.204-0.802-1.02-1.287-1.823-1.085c-0.803,0.204-1.289,1.021-1.084,1.823C5.818,37.673,14.001,44.03,23.405,44.03  c9.697,0,17.825-6.766,19.962-15.818l0.74,1.313c0.275,0.489,0.784,0.764,1.308,0.764c0.25,0,0.503-0.063,0.735-0.193  C46.872,29.689,47.128,28.774,46.721,28.053z" fill="#ffffff" style=""></path><desc>Created with Snap</desc><defs></defs></g><g><g transform="matrix(1.024,0,0,-1.024,0,0)"><path d="M243 -8Q139 -8 85 55Q31 119 31 234L31 643Q31 754 85 810Q139 867 243 867Q347 867 401 810Q455 754 455 643L455 234Q455 118 401 55Q347 -8 243 -8ZM243 150Q266 150 274 170Q282 190 282 226L282 646Q282 674 274 691Q267 709 244 709Q201 709 201 644L201 225Q201 188 210 169Q219 150 243 150ZM715 -8Q656 -8 608 15Q560 38 532 82Q505 127 505 190L505 405L674 405L674 200Q674 177 683 163Q693 150 713 150Q732 150 741 162Q751 175 751 198L751 859L924 859L924 215Q924 148 897 97Q871 47 823 19Q776 -8 715 -8ZM1470 0L1298 0L1298 694L1196 694L1196 859L1572 859L1572 694L1470 694L1470 0ZM1830 -8Q1611 -8 1611 219L1611 513Q1611 617 1669 678Q1728 740 1830 740Q1932 740 1990 678Q2049 617 2049 513L2049 219Q2049 -8 1830 -8ZM1830 127Q1851 127 1861 142Q1871 157 1871 183L1871 541Q1871 605 1830 605Q1789 605 1789 541L1789 183Q1789 157 1799 142Q1809 127 1830 127ZM2255 -8Q2173 -8 2142 41Q2112 90 2112 187L2112 732L2288 732L2288 222Q2288 215 2288 184Q2288 154 2297 141Q2307 129 2327 129Q2354 129 2361 151Q2368 174 2368 216L2368 222L2369 732L2543 732L2543 0L2368 0L2368 78Q2350 32 2326 12Q2302 -8 2255 -8ZM2613 0L2613 732L2788 732L2788 651Q2801 694 2833 717Q2866 741 2914 741L2914 595Q2877 595 2832 584Q2788 574 2788 560L2788 0L2613 0ZM3158 -8Q2941 -8 2941 212L2942 270L3117 270L3118 184Q3118 158 3128 144Q3138 131 3161 131Q3196 131 3196 188Q3196 230 3179 254Q3163 278 3127 305L3034 377Q2986 414 2965 453Q2944 493 2944 565Q2944 621 2973 660Q3003 700 3052 720Q3101 740 3161 740Q3374 740 3374 528L3374 514L3193 514L3193 542Q3193 568 3184 586Q3176 605 3156 605Q3138 605 3128 594Q3119 584 3119 566Q3119 526 3150 504L3258 425Q3316 382 3347 331Q3378 281 3378 204Q3378 102 3320 47Q3262 -8 3158 -8Z" fill="#ffffff" style=""></path></g></g><g transform="matrix(0.75,0,0,0.75,0.256,910.592)"><g transform="matrix(1.024,0,0,-1.024,0,0)"><path d="M329 -33L41 719L153 719L349 167L332 174L475 544L520 413L329 -33ZM683 -32L388 719L485 719L697 175L677 179L864 719L967 719L683 -32ZM1281 -10Q1210 -10 1159 18Q1108 47 1080 96Q1053 146 1053 210Q1053 271 1084 321Q1115 371 1167 401Q1219 431 1283 431Q1365 431 1419 383Q1473 335 1492 251L1151 131L1129 186L1409 288L1389 275Q1377 308 1349 332Q1321 357 1276 357Q1238 357 1208 338Q1178 320 1161 288Q1144 256 1144 215Q1144 172 1162 139Q1180 107 1211 88Q1243 70 1283 70Q1310 70 1335 80Q1361 90 1383 106L1426 37Q1395 16 1356 3Q1318 -10 1281 -10ZM2097 -10Q2039 -10 1991 15Q1944 40 1916 88Q1889 137 1889 207Q1889 276 1918 326Q1947 377 1995 404Q2044 431 2102 431Q2160 431 2200 404Q2240 378 2261 342L2255 326L2264 414L2350 414L2350 0L2257 0L2257 108L2267 84Q2263 74 2249 58Q2236 43 2213 27Q2191 11 2162 0Q2133 -10 2097 -10ZM2122 67Q2157 67 2185 80Q2213 93 2231 116Q2250 140 2257 173L2257 254Q2249 284 2229 306Q2209 329 2181 341Q2153 354 2119 354Q2082 354 2051 336Q2020 318 2001 286Q1983 254 1983 211Q1983 171 2002 138Q2021 105 2053 86Q2085 67 2122 67ZM2511 414L2594 414L2603 294L2598 310Q2614 348 2644 374Q2675 401 2708 415Q2742 430 2767 430L2762 338Q2715 341 2679 320Q2644 299 2623 264Q2603 229 2603 189L2603 0L2511 0L2511 414ZM3079 -10Q3008 -10 2957 18Q2906 47 2878 96Q2851 146 2851 210Q2851 271 2882 321Q2913 371 2965 401Q3017 431 3081 431Q3163 431 3217 383Q3271 335 3290 251L2949 131L2927 186L3207 288L3187 275Q3175 308 3147 332Q3119 357 3074 357Q3036 357 3006 338Q2976 320 2959 288Q2942 256 2942 215Q2942 172 2960 139Q2978 107 3009 88Q3041 70 3081 70Q3108 70 3133 80Q3159 90 3181 106L3224 37Q3193 16 3154 3Q3116 -10 3079 -10ZM3763 412L3763 596L3856 596L3856 412L3970 412L3970 339L3856 339L3856 0L3763 0L3763 339L3687 339L3687 412L3763 412ZM4175 0L4082 0L4082 774L4173 774L4173 318L4171 335Q4192 376 4235 403Q4279 430 4338 430Q4397 430 4434 395Q4472 361 4473 306L4473 0L4379 0L4379 273Q4378 307 4359 328Q4341 350 4302 350Q4266 350 4237 329Q4208 309 4191 274Q4175 239 4175 194L4175 0ZM4827 -10Q4756 -10 4705 18Q4654 47 4626 96Q4599 146 4599 210Q4599 271 4630 321Q4661 371 4713 401Q4765 431 4829 431Q4911 431 4965 383Q5019 335 5038 251L4697 131L4675 186L4955 288L4935 275Q4923 308 4895 332Q4867 357 4822 357Q4784 357 4754 338Q4724 320 4707 288Q4690 256 4690 215Q4690 172 4708 139Q4726 107 4757 88Q4789 70 4829 70Q4856 70 4881 80Q4907 90 4929 106L4972 37Q4941 16 4902 3Q4864 -10 4827 -10ZM5155 414L5238 414L5247 294L5242 310Q5258 348 5288 374Q5319 401 5352 415Q5386 430 5411 430L5406 338Q5359 341 5323 320Q5288 299 5267 264Q5247 229 5247 189L5247 0L5155 0L5155 414ZM5723 -10Q5652 -10 5601 18Q5550 47 5522 96Q5495 146 5495 210Q5495 271 5526 321Q5557 371 5609 401Q5661 431 5725 431Q5807 431 5861 383Q5915 335 5934 251L5593 131L5571 186L5851 288L5831 275Q5819 308 5791 332Q5763 357 5718 357Q5680 357 5650 338Q5620 320 5603 288Q5586 256 5586 215Q5586 172 5604 139Q5622 107 5653 88Q5685 70 5725 70Q5752 70 5777 80Q5803 90 5825 106L5868 37Q5837 16 5798 3Q5760 -10 5723 -10ZM6494 0L6401 0L6401 331L6330 331L6330 414L6401 414L6401 589Q6401 679 6441 727Q6482 775 6561 775Q6582 775 6607 769Q6633 763 6652 749L6613 682Q6604 691 6593 694Q6582 698 6571 698Q6534 698 6514 673Q6494 648 6494 588L6494 414L6625 414L6625 331L6494 331L6494 0ZM6710 211Q6710 273 6739 323Q6769 373 6821 402Q6873 431 6939 431Q7007 431 7058 402Q7109 373 7137 323Q7165 273 7165 211Q7165 149 7137 98Q7109 48 7057 19Q7006 -10 6938 -10Q6872 -10 6820 17Q6769 45 6739 94Q6710 144 6710 211ZM6803 210Q6803 170 6821 137Q6839 105 6869 86Q6900 67 6937 67Q6976 67 7006 86Q7037 105 7054 137Q7071 170 7071 210Q7071 250 7054 282Q7037 315 7006 334Q6976 354 6937 354Q6899 354 6868 334Q6838 314 6820 281Q6803 249 6803 210ZM7291 414L7374 414L7383 294L7378 310Q7394 348 7424 374Q7455 401 7488 415Q7522 430 7547 430L7542 338Q7495 341 7459 320Q7424 299 7403 264Q7383 229 7383 189L7383 0L7291 0L7291 414ZM8110 -199L8018 -199L8291 414L8377 414L8110 -199ZM8193 44L8120 -3L7921 414L8026 414L8193 44ZM8441 211Q8441 273 8470 323Q8500 373 8552 402Q8604 431 8670 431Q8738 431 8789 402Q8840 373 8868 323Q8896 273 8896 211Q8896 149 8868 98Q8840 48 8788 19Q8737 -10 8669 -10Q8603 -10 8551 17Q8500 45 8470 94Q8441 144 8441 211ZM8534 210Q8534 170 8552 137Q8570 105 8600 86Q8631 67 8668 67Q8707 67 8737 86Q8768 105 8785 137Q8802 170 8802 210Q8802 250 8785 282Q8768 315 8737 334Q8707 354 8668 354Q8630 354 8599 334Q8569 314 8551 281Q8534 249 8534 210ZM9153 -16Q9097 -16 9060 18Q9024 53 9022 108L9022 414L9115 414L9115 141Q9117 107 9134 86Q9152 65 9190 64Q9225 64 9252 84Q9280 105 9297 140Q9314 176 9314 221L9314 414L9407 414L9407 0L9322 0L9314 102L9319 84Q9307 55 9282 32Q9258 10 9225 -3Q9192 -16 9153 -16Z" fill="#ffffff" style=""></path></g></g></g></svg>